<svg id="Isolation_Mode" data-name="Isolation Mode" xmlns="http://www.w3.org/2000/svg" width="113" height="25.062" viewBox="0 0 113 25.062">
  <path id="Path_1" data-name="Path 1" d="M7.072,443.917a17.584,17.584,0,0,0-6.131,1.4c-.293.125-.955.44-.945.448s.155-.032.338-.077a25.412,25.412,0,0,1,3-.531,26.557,26.557,0,0,1,4.948-.033c.688.06,1.108.122,2.657.391a57.091,57.091,0,0,0,10.692,1.2,17.481,17.481,0,0,0,6.195-1.416c.326-.138,1.013-.463,1-.473s-.142.028-.312.07a20.528,20.528,0,0,1-5.607.668,14.582,14.582,0,0,1-1.974-.07c-.92-.091-1.909-.228-4.407-.608-2.744-.418-4.055-.6-5.415-.75a29.069,29.069,0,0,0-4.04-.221" transform="translate(0.004 -432.781)" fill="#016d9d" fill-rule="evenodd"/>
  <path id="Path_2" data-name="Path 2" d="M77.663,502.421c-.68.028-1.21.068-1.745.132-.43.05-1.306.185-1.321.2a10.091,10.091,0,0,0,.135,1.566l.02.138h1.789a9,9,0,0,0,1.781-.03c-.005-.015-.032-.137-.058-.27a9.845,9.845,0,0,1-.175-1.5l-.012-.245-.153,0c-.083,0-.2.005-.26.008" transform="translate(-72.72 -489.818)" fill="#016d9d" fill-rule="evenodd"/>
  <path id="Path_3" data-name="Path 3" d="M85.959,607.448a13.5,13.5,0,0,0,.584,1.906l.112.282h3.96l-.072-.113a9.614,9.614,0,0,1-.9-1.893l-.071-.21H87.761a9.847,9.847,0,0,0-1.8.028" transform="translate(-83.804 -592.197)" fill="#016d9d" fill-rule="evenodd"/>
  <path id="Path_4" data-name="Path 4" d="M878.4,607.63a9.511,9.511,0,0,1-.871,1.851l-.1.155h3.957l.111-.282a13.481,13.481,0,0,0,.585-1.906,9.834,9.834,0,0,0-1.8-.028H878.47Z" transform="translate(-855.44 -592.197)" fill="#016d9d" fill-rule="evenodd"/>
  <path id="Path_5" data-name="Path 5" d="M122.081,713.8c0,.018.24.488.36.7a12.9,12.9,0,0,0,.833,1.311l.165.228h5.1l-.166-.11a9.217,9.217,0,0,1-2.13-2.011l-.1-.128h-2.03c-1.117,0-2.03,0-2.03.008" transform="translate(-119.02 -695.901)" fill="#016d9d" fill-rule="evenodd"/>
  <path id="Path_6" data-name="Path 6" d="M771.774,713.9a9.259,9.259,0,0,1-2.139,2.019l-.165.11h5.095l.165-.228a12.89,12.89,0,0,0,.833-1.311c.12-.213.36-.683.36-.7s-.913-.008-2.03-.008h-2.027Z" transform="translate(-750.186 -695.891)" fill="#016d9d" fill-rule="evenodd"/>
  <path id="Path_7" data-name="Path 7" d="M187.275,816.169c.286.342.523.6.836.913a11.577,11.577,0,0,0,1.338,1.171l.137.1h14.782l.137-.1a13.076,13.076,0,0,0,2.066-1.955l.125-.15-2.676-.005-2.676,0-.335.165a8.957,8.957,0,0,1-3.25.922,14.383,14.383,0,0,1-1.566,0,9.048,9.048,0,0,1-3.308-.948l-.273-.138H189.93a20.645,20.645,0,0,0-2.656.028" transform="translate(-182.578 -795.686)" fill="#016d9d" fill-rule="evenodd"/>
  <path id="Path_8" data-name="Path 8" d="M292.166,913.342a12.544,12.544,0,0,0,4.74,1.888,13.573,13.573,0,0,0,4.349,0,12.544,12.544,0,0,0,4.74-1.888l.167-.112H292Z" transform="translate(-284.682 -890.343)" fill="#016d9d" fill-rule="evenodd"/>
  <path id="Path_9" data-name="Path 9" d="M2360.169,129.2v9.357h1.793l.025-3.621a24.3,24.3,0,0,1,.209-4.834,5.009,5.009,0,0,1,2.393-3.221,4.339,4.339,0,0,1,3.392-.331,3.307,3.307,0,0,1,2.115,2.822c.063.37.078,1.111.1,4.81l.02,4.376h1.808L2372,134.3c-.025-4.61-.039-4.887-.307-5.979a4.649,4.649,0,0,0-3.26-3.445,3.739,3.739,0,0,0-1.437-.132,4.168,4.168,0,0,0-1.486.137,6.691,6.691,0,0,0-3.28,2.2l-.253.292V119.84h-1.8Z" transform="translate(-2301.02 -116.836)" fill="#2d2d2d" fill-rule="evenodd"/>
  <path id="Path_10" data-name="Path 10" d="M1933.4,130.13v2.51h-2.973v1.511h2.973v11.988h1.754V134.15h3.363V132.64h-3.363v-5.02H1933.4Z" transform="translate(-1882.051 -124.421)" fill="#2d2d2d" fill-rule="evenodd"/>
  <path id="Path_11" data-name="Path 11" d="M1294.814,314.581a6.52,6.52,0,0,0-3.055,1.306,7.4,7.4,0,0,0-2.675,4.723,11.889,11.889,0,0,0,.078,2.544,6.643,6.643,0,0,0,6.9,5.555,6.664,6.664,0,0,0,3.65-.906,7.11,7.11,0,0,0,2.612-2.739c.185-.331.214-.419.161-.453s-.288-.156-.556-.3-.56-.292-.648-.341a.567.567,0,0,0-.219-.083,2.649,2.649,0,0,0-.424.565,6.221,6.221,0,0,1-1.5,1.637,5.744,5.744,0,0,1-4.6.809,5.143,5.143,0,0,1-3.333-3.148,7.919,7.919,0,0,1-.336-1.613l-.034-.351h12.144V321.5a10.687,10.687,0,0,0-.224-1.735,6.742,6.742,0,0,0-1.759-3.2,6.451,6.451,0,0,0-3.767-1.969,12.9,12.9,0,0,0-2.413-.02m2.154,1.725a5.532,5.532,0,0,1,2.636,1.311,5.135,5.135,0,0,1,1.292,2.208l.122.4h-4.99c-2.744,0-4.99-.01-4.99-.019a9.56,9.56,0,0,1,.5-1.272,4.7,4.7,0,0,1,3.353-2.606,6.648,6.648,0,0,1,2.08-.025" transform="translate(-1256.742 -306.651)" fill="#2d2d2d" fill-rule="evenodd"/>
  <path id="Path_12" data-name="Path 12" d="M2969.919,314.985c-.039.01-.238.044-.438.073a6.714,6.714,0,0,0-2.529,1.038,7.82,7.82,0,0,0-1.749,1.808,6.972,6.972,0,0,0-1.111,2.539,5.4,5.4,0,0,0-.141,1.608,5.888,5.888,0,0,0,.326,2.315,7.366,7.366,0,0,0,2.792,3.762,6.5,6.5,0,0,0,1.418.672,6.574,6.574,0,0,0,2.188.326,6.781,6.781,0,0,0,3.387-.6,6.943,6.943,0,0,0,3.065-2.87c.371-.629.41-.546-.409-.97-.4-.2-.73-.37-.755-.37a2.95,2.95,0,0,0-.356.473,5.416,5.416,0,0,1-4.785,2.7,4.532,4.532,0,0,1-3.465-1.394,5.319,5.319,0,0,1-1.594-3.6l-.02-.278h12.12v-.379a7.8,7.8,0,0,0-.843-3.323,6.951,6.951,0,0,0-3.567-3.148,6.069,6.069,0,0,0-2.412-.385c-.575-.01-1.082-.01-1.121,0m1.936,1.754a5.959,5.959,0,0,1,2.085.852A5.7,5.7,0,0,1,2975,318.61a5.925,5.925,0,0,1,.765,1.554c.083.249.147.458.147.473s-2.247.025-5,.025h-4.989l.146-.429a5.573,5.573,0,0,1,1.008-1.876,4.919,4.919,0,0,1,2.69-1.6,6.771,6.771,0,0,1,2.08-.02" transform="translate(-2889.669 -307.083)" fill="#2d2d2d" fill-rule="evenodd"/>
  <path id="Path_13" data-name="Path 13" d="M3636.384,314.56a4.834,4.834,0,0,0-2.426,1.794l-.253.336v-1.867h-1.8v13.5h1.794l.025-3.694c.025-3.9.053-4.464.272-5.395a4.094,4.094,0,0,1,1.9-2.768,1.875,1.875,0,0,1,1.642-.137c.156.059.288.1.292.1s.9-1.447.9-1.477a2.785,2.785,0,0,0-.862-.4,3.958,3.958,0,0,0-1.477.005" transform="translate(-3540.879 -306.605)" fill="#2d2d2d" fill-rule="evenodd"/>
  <path id="Path_14" data-name="Path 14" d="M3953.622,314.67a7.081,7.081,0,0,0-5.75,6.359,7.6,7.6,0,0,0,.707,3.9,7.871,7.871,0,0,0,2.559,2.836,6.617,6.617,0,0,0,2.51.941,9.251,9.251,0,0,0,2.656-.063,6.825,6.825,0,0,0,3.353-1.9l.5-.5v2.188h1.754V315.523h-1.754V317.3l-.131-.171a9.817,9.817,0,0,0-1.378-1.345,6.169,6.169,0,0,0-2.647-1.116,10.721,10.721,0,0,0-2.373,0m2.17,1.686a5.307,5.307,0,0,1,4.162,3.445,6.164,6.164,0,0,1,.043,3.767,5.116,5.116,0,0,1-2.481,2.929,5.243,5.243,0,0,1-6.944-1.764,5.452,5.452,0,0,1-.911-3,5.132,5.132,0,0,1,.614-2.544,5.266,5.266,0,0,1,5.516-2.836" transform="translate(-3848.907 -306.72)" fill="#2d2d2d" fill-rule="evenodd"/>
  <path id="Path_15" data-name="Path 15" d="M86.636-.01A12.524,12.524,0,0,0,74.7,11.677l-.01.12.372-.122a19.77,19.77,0,0,1,2.518-.639c.152-.028.721-.118.746-.118a.2.2,0,0,0,.02-.078,9.5,9.5,0,0,1,.6-1.955A9.051,9.051,0,0,1,85.5,3.656,8.3,8.3,0,0,1,87.211,3.5a8.49,8.49,0,0,1,2.232.276,9.042,9.042,0,0,1,6.428,6.219,8.75,8.75,0,0,1,.348,2.069l.02.37.042-.007c.023,0,.226-.012.451-.017a18.236,18.236,0,0,0,2.961-.287c.052-.008.055-.013.047-.07,0-.033-.012-.162-.017-.285a12.505,12.505,0,0,0-8.38-11.1A12.669,12.669,0,0,0,86.636-.01" transform="translate(-72.818 0.023)" fill="#f89a40" fill-rule="evenodd"/>
</svg>
