<svg xmlns="http://www.w3.org/2000/svg" width="18.143" height="21.916" viewBox="0 0 18.143 21.916">
  <g id="Group_236" data-name="Group 236" transform="translate(-458.886 -65.653)">
    <path id="Path_248" data-name="Path 248" d="M461.039,74.832a1.156,1.156,0,0,0-1.153,1.152v9.225a1.158,1.158,0,0,0,1.153,1.153h13.836a1.159,1.159,0,0,0,1.153-1.153V75.984a1.156,1.156,0,0,0-1.153-1.152H461.039Z" transform="translate(0 0.207)" fill="none" stroke="#333" stroke-miterlimit="10" stroke-width="2"/>
    <g id="Path_249" data-name="Path 249" transform="translate(0.168 0.306)" fill="none" stroke-miterlimit="10">
      <path d="M468.427,81.115l.193,1.36h-1.645l.212-1.364a1.224,1.224,0,0,1-.669-1.089,1.292,1.292,0,0,1,2.583-.01A1.243,1.243,0,0,1,468.427,81.115Z" stroke="none"/>
      <path d="M 468.619873046875 82.47486877441406 L 468.4271240234375 81.11534118652344 C 468.8392944335938 80.89078521728516 469.1007080078125 80.48887634277344 469.1007080078125 80.01213073730469 C 469.1007080078125 79.29954528808594 468.521484375 78.75100708007812 467.8099365234375 78.75100708007812 C 467.0973510742188 78.75100708007812 466.5180053710938 79.30979156494141 466.5180053710938 80.02235412597656 C 466.5180053710938 80.49607086181641 466.7774658203125 80.88771057128906 467.1875 81.11122894287109 L 466.9752807617188 82.47486877441406 L 468.619873046875 82.47486877441406 M 470.9234313964844 84.47486877441406 L 464.6399536132812 84.47486877441406 L 465.0553588867188 81.80551910400391 C 464.7083740234375 81.28818511962891 464.5180053710938 80.67510223388672 464.5180053710938 80.02235412597656 C 464.5180053710938 78.21852874755859 465.9947509765625 76.75100708007812 467.8099365234375 76.75100708007812 C 468.6779479980469 76.75100708007812 469.495849609375 77.07991790771484 470.1130065917969 77.67714691162109 C 470.7499389648438 78.29352569580078 471.1007080078125 79.12277984619141 471.1007080078125 80.01213073730469 C 471.1007080078125 80.67795562744141 470.9047241210938 81.30226898193359 470.5479431152344 81.82645416259766 L 470.9234313964844 84.47486877441406 Z" stroke="none" fill="#333"/>
    </g>
    <path id="Path_250" data-name="Path 250" d="M462.466,74.186v-3.9a3.635,3.635,0,0,1,3.635-3.636h3.582a3.636,3.636,0,0,1,3.636,3.636v.821" transform="translate(0.065)" fill="none" stroke="#333" stroke-linecap="round" stroke-linejoin="round" stroke-width="2"/>
  </g>
</svg>
